<mxfile host="app.diagrams.net" modified="2023-12-28T08:19:44.835Z" agent="Mozilla/5.0 (Windows NT 10.0; Win64; x64) AppleWebKit/537.36 (KHTML, like Gecko) Chrome/118.0.0.0 YaBrowser/23.11.0.0 Safari/537.36" etag="3VHsWiuQX0iY9uBekWU3" version="22.1.15" type="google">
  <diagram name="Страница — 1" id="8TIrI8J4Fe-jU8HvQiZf">
    <mxGraphModel grid="1" page="1" gridSize="10" guides="1" tooltips="1" connect="1" arrows="1" fold="1" pageScale="1" pageWidth="827" pageHeight="1169" math="0" shadow="0">
      <root>
        <mxCell id="0" />
        <mxCell id="1" parent="0" />
        <mxCell id="N3VzTI02TNlWmH4vhUfU-1" value="" style="rounded=0;whiteSpace=wrap;html=1;" vertex="1" parent="1">
          <mxGeometry x="130" y="50" width="90" height="330" as="geometry" />
        </mxCell>
        <mxCell id="N3VzTI02TNlWmH4vhUfU-2" value="" style="rounded=0;whiteSpace=wrap;html=1;" vertex="1" parent="1">
          <mxGeometry x="340" y="50" width="100" height="330" as="geometry" />
        </mxCell>
        <mxCell id="N3VzTI02TNlWmH4vhUfU-3" value="" style="rounded=0;whiteSpace=wrap;html=1;" vertex="1" parent="1">
          <mxGeometry x="650" y="50" width="90" height="330" as="geometry" />
        </mxCell>
        <mxCell id="N3VzTI02TNlWmH4vhUfU-4" value="Студент" style="shape=umlActor;verticalLabelPosition=bottom;verticalAlign=top;html=1;outlineConnect=0;" vertex="1" parent="1">
          <mxGeometry x="150" y="-60" width="30" height="60" as="geometry" />
        </mxCell>
        <mxCell id="N3VzTI02TNlWmH4vhUfU-5" value="Преподаватель" style="shape=umlActor;verticalLabelPosition=bottom;verticalAlign=top;html=1;outlineConnect=0;" vertex="1" parent="1">
          <mxGeometry x="375" y="-50" width="30" height="60" as="geometry" />
        </mxCell>
        <mxCell id="N3VzTI02TNlWmH4vhUfU-6" value="Декан" style="shape=umlActor;verticalLabelPosition=bottom;verticalAlign=top;html=1;outlineConnect=0;" vertex="1" parent="1">
          <mxGeometry x="680" y="-50" width="30" height="60" as="geometry" />
        </mxCell>
        <mxCell id="N3VzTI02TNlWmH4vhUfU-7" value="Выполнить задания" style="html=1;verticalAlign=bottom;startArrow=oval;startFill=1;endArrow=block;startSize=8;curved=0;rounded=0;exitX=1.012;exitY=0.156;exitDx=0;exitDy=0;exitPerimeter=0;entryX=-0.022;entryY=0.155;entryDx=0;entryDy=0;entryPerimeter=0;" edge="1" parent="1" source="N3VzTI02TNlWmH4vhUfU-1" target="N3VzTI02TNlWmH4vhUfU-2">
          <mxGeometry width="60" relative="1" as="geometry">
            <mxPoint x="330" y="120" as="sourcePoint" />
            <mxPoint x="390" y="120" as="targetPoint" />
          </mxGeometry>
        </mxCell>
        <mxCell id="N3VzTI02TNlWmH4vhUfU-9" value="Выставить результаты" style="html=1;verticalAlign=bottom;startArrow=oval;startFill=1;endArrow=block;startSize=8;curved=0;rounded=0;exitX=0.002;exitY=0.379;exitDx=0;exitDy=0;exitPerimeter=0;" edge="1" parent="1" source="N3VzTI02TNlWmH4vhUfU-2">
          <mxGeometry width="60" relative="1" as="geometry">
            <mxPoint x="240" y="180" as="sourcePoint" />
            <mxPoint x="220" y="175" as="targetPoint" />
          </mxGeometry>
        </mxCell>
        <mxCell id="N3VzTI02TNlWmH4vhUfU-10" value="Предоставить отчет об оценках" style="html=1;verticalAlign=bottom;startArrow=oval;startFill=1;endArrow=block;startSize=8;curved=0;rounded=0;exitX=1.02;exitY=0.14;exitDx=0;exitDy=0;exitPerimeter=0;entryX=-0.018;entryY=0.138;entryDx=0;entryDy=0;entryPerimeter=0;" edge="1" parent="1" source="N3VzTI02TNlWmH4vhUfU-2" target="N3VzTI02TNlWmH4vhUfU-3">
          <mxGeometry width="60" relative="1" as="geometry">
            <mxPoint x="450" y="90" as="sourcePoint" />
            <mxPoint x="510" y="90" as="targetPoint" />
          </mxGeometry>
        </mxCell>
        <mxCell id="N3VzTI02TNlWmH4vhUfU-12" value="Указания по работе" style="html=1;verticalAlign=bottom;startArrow=oval;startFill=1;endArrow=block;startSize=8;curved=0;rounded=0;exitX=-0.042;exitY=0.36;exitDx=0;exitDy=0;exitPerimeter=0;entryX=0.99;entryY=0.364;entryDx=0;entryDy=0;entryPerimeter=0;" edge="1" parent="1" source="N3VzTI02TNlWmH4vhUfU-3" target="N3VzTI02TNlWmH4vhUfU-2">
          <mxGeometry width="60" relative="1" as="geometry">
            <mxPoint x="500" y="220" as="sourcePoint" />
            <mxPoint x="560" y="220" as="targetPoint" />
          </mxGeometry>
        </mxCell>
      </root>
    </mxGraphModel>
  </diagram>
</mxfile>
